# xmcd
#
# Track frame offsets:
# 150
# 21963
# 44069
# 62003
# 83006
# 106934
# 131978
# 147899
#
# Disc length: 2250 seconds
#
#
# Revision: 0
# Processed by: cddbd v1.5.2PL0 Copyright (c) Steve Scherf et al.
# Submitted via: FreeRIP 2.945 
#
DISCID=6f08c808
DTITLE=Peabo Bryson - Reaching For The Sky
DYEAR=1977
DGENRE=R&B
TTITLE0=Reaching For the Sky
TTITLE1=Feel The Fire
TTITLE2=A Fool Already Knows
TTITLE3=Hold On To The World
TTITLE4=Love From Your Heart
TTITLE5=Love Walked Out On Me
TTITLE6=You Haven't Learned About Love
TTITLE7=Have A Good Time
EXTD=
EXTT0=
EXTT1=
EXTT2=
EXTT3=
EXTT4=
EXTT5=
EXTT6=
EXTT7=
PLAYORDER=
